<svg width="48" height="58" viewBox="0 0 48 58" fill="none" xmlns="http://www.w3.org/2000/svg">
<g id="Vector">
<path d="M0 0C9.93042 17.2 4.13768 45.8333 0 58H16C16.6667 39.5 14.4 2 0 0Z" fill="#0F172A"/>
<path d="M34 8.5C42.6336 23.031 37.5973 47.2213 34 57.5H47.9106C48.4902 41.8707 46.5195 10.1897 34 8.5Z" fill="#F1F5F9"/>
<path d="M23 26.5C23 24.8431 24.3431 23.5 26 23.5C27.6569 23.5 29 24.8431 29 26.5V36.5C29 38.1569 27.6569 39.5 26 39.5C24.3431 39.5 23 38.1569 23 36.5V26.5Z" fill="#FFDD38"/>
<path d="M33 22.5C33 26.366 29.866 29.5 26 29.5C22.134 29.5 19 26.366 19 22.5C19 18.634 22.134 15.5 26 15.5C29.866 15.5 33 18.634 33 22.5Z" fill="#FFDD38"/>
</g>
</svg>
