<svg width="223" height="155" viewBox="0 0 223 155" fill="none" xmlns="http://www.w3.org/2000/svg">
<g id="Frame 8">
<rect width="223" height="155" fill="white"/>
<g id="Group 39">
<path id="NUVAULT" d="M69.05 62.5H75.95L81.3 83.45H81.4V62.5H86.3V97.5H80.65L74.05 71.95H73.95V97.5H69.05V62.5ZM98.3879 98C95.7212 98 93.6879 97.25 92.2879 95.75C90.8879 94.2167 90.1879 92.0333 90.1879 89.2V62.5H95.6879V89.6C95.6879 90.8 95.9212 91.6667 96.3879 92.2C96.8879 92.7333 97.5879 93 98.4879 93C99.3879 93 100.071 92.7333 100.538 92.2C101.038 91.6667 101.288 90.8 101.288 89.6V62.5H106.588V89.2C106.588 92.0333 105.888 94.2167 104.488 95.75C103.088 97.25 101.055 98 98.3879 98ZM109.055 62.5H114.605L118.205 89.65H118.305L121.905 62.5H126.955L121.655 97.5H114.355L109.055 62.5ZM132.431 62.5H139.881L145.581 97.5H140.081L139.081 90.55V90.65H132.831L131.831 97.5H126.731L132.431 62.5ZM138.431 85.9L135.981 68.6H135.881L133.481 85.9H138.431ZM156.152 98C153.485 98 151.452 97.25 150.052 95.75C148.652 94.2167 147.952 92.0333 147.952 89.2V62.5H153.452V89.6C153.452 90.8 153.685 91.6667 154.152 92.2C154.652 92.7333 155.352 93 156.252 93C157.152 93 157.835 92.7333 158.302 92.2C158.802 91.6667 159.052 90.8 159.052 89.6V62.5H164.352V89.2C164.352 92.0333 163.652 94.2167 162.252 95.75C160.852 97.25 158.818 98 156.152 98ZM168.269 62.5H173.769V92.5H182.819V97.5H168.269V62.5ZM185.85 67.5H180.1V62.5H197.1V67.5H191.35V97.5H185.85V67.5Z" fill="white"/>
<g id="Group 35">
<path id="Vector 1" d="M9 48C18.9304 65.2 13.1377 93.8333 9 106H25C25.6667 87.5 23.4 50 9 48Z" fill="#0F172A"/>
<path id="Vector 2" d="M43 56.5C51.6336 71.031 46.5973 95.2213 43 105.5H56.9106C57.4902 89.8707 55.5195 58.1897 43 56.5Z" fill="#F1F5F9"/>
<rect id="Rectangle 47" x="32" y="71.5" width="6" height="16" rx="3" fill="#FFDD38"/>
<circle id="Ellipse 12" cx="35" cy="70.5" r="7" fill="#FFDD38"/>
</g>
</g>
</g>
</svg>
